HIERARCHY
ROOT root
{
	OFFSET 0.000000 0.000000 0.000000
	CHANNELS 6 Xposition Yposition Zposition Zrotation Yrotation Xrotation
	JOINT lhip
	{
		OFFSET 0.058581 -0.082280 -0.017664
		CHANNELS 3 Zrotation Yrotation Xrotation
		JOINT lknee
		{
			OFFSET 0.043451 -0.386469 0.008037
			CHANNELS 3 Zrotation Yrotation Xrotation
			JOINT lankle
			{
				OFFSET -0.014790 -0.426874 -0.037428
				CHANNELS 3 Zrotation Yrotation Xrotation
				JOINT ltoe
				{
					OFFSET 0.041054 -0.060286 0.122042
					CHANNELS 3 Zrotation Yrotation Xrotation
					End Site
					{
						OFFSET 0.000000 0.000000 0.000000
					}
				}
			}
		}
	}
	JOINT rhip
	{
		OFFSET -0.060310 -0.090513 -0.013543
		CHANNELS 3 Zrotation Yrotation Xrotation
		JOINT rknee
		{
			OFFSET -0.043257 -0.383688 -0.004843
			CHANNELS 3 Zrotation Yrotation Xrotation
			JOINT rankle
			{
				OFFSET 0.019056 -0.420046 -0.034562
				CHANNELS 3 Zrotation Yrotation Xrotation
				JOINT rtoe
				{
					OFFSET -0.034840 -0.062106 0.130323
					CHANNELS 3 Zrotation Yrotation Xrotation
					End Site
					{
						OFFSET 0.000000 0.000000 0.000000
					}
				}
			}
		}
	}
	JOINT lowerback
	{
		OFFSET 0.004439 0.124404 -0.038385
		CHANNELS 3 Zrotation Yrotation Xrotation
		JOINT upperback
		{
			OFFSET 0.004488 0.137956 0.026820
			CHANNELS 3 Zrotation Yrotation Xrotation
			JOINT chest
			{
				OFFSET -0.002265 0.056032 0.002855
				CHANNELS 3 Zrotation Yrotation Xrotation
				JOINT lowerneck
				{
					OFFSET -0.013390 0.211636 -0.033468
					CHANNELS 3 Zrotation Yrotation Xrotation
					JOINT upperneck
					{
						OFFSET 0.010113 0.088937 0.050410
						CHANNELS 3 Zrotation Yrotation Xrotation
						End Site
						{
							OFFSET 0.000000 0.000000 0.000000
						}
					}
				}
				JOINT lclavicle
				{
					OFFSET 0.071702 0.114000 -0.018898
					CHANNELS 3 Zrotation Yrotation Xrotation
					JOINT lshoulder
					{
						OFFSET 0.122921 0.045205 -0.019046
						CHANNELS 3 Zrotation Yrotation Xrotation
						JOINT lelbow
						{
							OFFSET 0.255332 -0.015649 -0.022946
							CHANNELS 3 Zrotation Yrotation Xrotation
							JOINT lwrist
							{
								OFFSET 0.265709 0.012698 -0.007375
								CHANNELS 3 Zrotation Yrotation Xrotation
								End Site
								{
									OFFSET 0.000000 0.000000 0.000000
								}
							}
						}
					}
				}
				JOINT rclavicle
				{
					OFFSET -0.082954 0.112472 -0.023707
					CHANNELS 3 Zrotation Yrotation Xrotation
					JOINT rshoulder
					{
						OFFSET -0.113228 0.046853 -0.008472
						CHANNELS 3 Zrotation Yrotation Xrotation
						JOINT relbow
						{
							OFFSET -0.260127 -0.014369 -0.031269
							CHANNELS 3 Zrotation Yrotation Xrotation
							JOINT rwrist
							{
								OFFSET -0.269108 0.006794 -0.006027
								CHANNELS 3 Zrotation Yrotation Xrotation
								End Site
								{
									OFFSET 0.000000 0.000000 0.000000
								}
							}
						}
					}
				}
			}
		}
	}
}
MOTION
Frames: 8
Frame Time: 0.033333
-0.905383 -1.848324 0.976882 166.705744 -0.675238 93.325755 -1.155486 -0.422689 1.564748 -2.872056 -4.117430 -3.150711 8.529759 1.921679 -12.985648 0.000000 -0.000000 0.000000 -3.429989 -13.502256 -1.801956 2.693951 -6.367299 10.119326 -1.702133 -6.862203 -14.408056 0.000000 -0.000000 0.000000 2.715647 2.942291 -12.146897 0.561570 -5.135872 6.924162 -3.200100 -2.395706 9.215708 -5.860579 2.137856 3.388261 -1.881795 9.289315 3.010348 -25.499423 10.552621 4.027867 -64.462394 -3.909154 16.544213 -160.962717 -68.299504 -178.674516 17.476161 -8.450008 -27.742624 20.510623 -5.254289 5.716286 64.269824 4.582960 15.412642 -59.771443 71.109189 -36.646699 -5.926847 6.939207 10.944089 
-0.904580 -1.846135 0.976360 165.983116 -0.289646 93.504403 -1.148136 -1.521073 -1.103805 -2.743857 -3.444346 2.026501 9.344940 3.805280 -15.595219 0.000000 -0.000000 0.000000 -2.992797 -12.713468 -1.918178 2.995521 -5.139768 10.263073 -1.202173 -8.123775 -15.110518 0.000000 -0.000000 0.000000 3.279166 3.051094 -11.967654 0.374500 -4.441472 6.198941 -3.212667 -2.465009 9.980285 -5.836470 3.004860 2.291197 -1.624520 9.673151 4.119470 -25.397338 10.757607 3.700168 -64.761449 -3.812409 16.313418 -158.311281 -67.788315 179.934222 17.252053 -8.432407 -29.005749 20.766171 -5.940690 4.959038 63.988980 4.121980 15.544904 -60.536153 71.897367 -35.610949 -5.486124 6.222495 10.233632 
-0.903790 -1.843266 0.975935 164.951170 -0.036578 93.740781 -1.040307 -3.369515 -3.982835 -3.043085 -1.838505 8.118196 10.692826 6.037179 -19.032816 0.000000 -0.000000 0.000000 -2.754263 -11.504945 -2.254650 3.310571 -4.751438 10.799305 -1.370265 -8.662545 -16.144152 0.000000 -0.000000 0.000000 3.740192 3.334742 -12.227387 0.349798 -4.303250 6.097380 -3.686585 -2.315177 10.265549 -5.917387 4.371028 2.025784 -1.431845 10.601446 5.106565 -25.434498 10.897423 3.638441 -64.640498 -3.640882 16.788848 -158.875006 -67.696975 -178.850834 19.008035 -9.119718 -30.130315 21.027022 -6.292739 5.195208 64.175750 4.174154 16.262895 -59.766445 72.320897 -34.621375 -5.839084 5.936654 7.843425 
-0.902603 -1.837726 0.975462 163.416132 0.224085 93.691851 -0.817058 -6.184173 -6.292895 -3.527756 0.482808 14.410866 11.801495 9.087934 -22.626221 0.000000 -0.000000 0.000000 -2.706382 -10.005349 -2.079666 3.820795 -4.062507 11.457811 -1.655596 -9.604026 -17.178977 0.000000 -0.000000 0.000000 4.079826 3.818718 -12.809015 0.415537 -4.222950 7.024107 -4.253208 -2.119236 10.981031 -5.483639 6.160583 -0.082105 -1.297644 10.834482 5.969603 -25.541358 10.617409 3.158336 -65.230511 -4.287645 16.723513 -159.609776 -68.389605 -178.303777 15.457057 -8.039273 -29.368828 21.973730 -6.498225 4.996689 63.590228 4.416469 16.984753 -62.085959 72.209536 -35.327225 -4.497579 4.530720 7.932368 
-0.901371 -1.833278 0.975021 162.349698 0.270927 93.764726 -0.710386 -8.375386 -7.939646 -3.865618 2.397499 18.797084 12.077277 11.357131 -24.628209 0.000000 -0.000000 0.000000 -3.017937 -9.369705 -1.977952 4.400255 -3.853496 11.873524 -1.530547 -9.781938 -18.044273 0.000000 -0.000000 0.000000 4.662271 3.792078 -13.091650 0.167434 -4.507501 7.510366 -5.002579 -1.901802 11.463403 -5.768841 7.401265 -2.248797 -1.084043 11.398557 6.737723 -26.082845 11.467036 1.873388 -64.414221 -4.186796 16.985032 -158.858674 -68.246808 -179.158705 15.090497 -8.271036 -29.538794 22.743496 -6.608810 5.218901 63.370514 5.236248 18.013077 -61.196392 72.152833 -34.552996 -4.868250 4.165350 6.927675 
-0.899692 -1.827022 0.974307 161.172733 0.506467 94.228926 -0.360275 -9.749793 -9.795377 -4.091197 4.014682 23.118893 12.177289 12.704416 -26.824509 0.000000 -0.000000 0.000000 -2.936408 -8.321497 -2.322720 4.697266 -3.782382 12.460388 -1.622348 -10.027629 -18.853880 0.000000 -0.000000 0.000000 4.581142 4.393199 -13.532051 0.413235 -4.379894 7.811593 -5.057801 -2.049522 11.134028 -5.565394 8.304447 -2.271062 -0.665617 11.856775 6.786928 -26.298324 10.608517 2.587009 -64.493592 -4.121166 16.935746 -159.690777 -68.719103 -177.927531 14.316021 -8.755022 -29.075237 23.120990 -7.102501 5.172822 62.876702 4.622253 17.660839 -62.036227 72.562344 -33.929559 -3.833992 3.236626 7.073528 
-0.896624 -1.822009 0.972678 159.957245 1.137740 94.700888 0.317688 -10.328296 -10.674864 -4.138792 5.048844 25.539656 12.216561 14.262347 -29.474317 0.000000 -0.000000 0.000000 -2.162446 -6.961283 -2.794422 4.910028 -3.090009 13.076250 -2.804115 -10.838971 -18.898074 0.000000 -0.000000 0.000000 5.015112 4.302510 -14.068451 0.408387 -4.343197 8.433854 -5.202094 -1.949600 11.324190 -5.717307 9.648116 -3.909486 -0.221362 12.829036 7.632995 -26.254006 10.101185 2.388762 -64.585159 -4.312708 16.976462 -160.161846 -68.914091 -176.832567 13.924733 -9.166876 -28.637527 23.516711 -6.760392 5.591561 62.762555 5.054576 17.761540 -60.877996 72.447740 -32.981379 -3.389580 3.161354 4.677371 
-0.893974 -1.813736 0.971103 158.980516 1.469078 95.354467 0.639313 -11.045218 -11.636542 -4.302271 5.698949 27.986023 12.111970 15.589990 -31.464236 0.000000 -0.000000 0.000000 -2.061323 -6.223980 -3.029042 5.062862 -3.216976 13.363095 -2.262729 -10.828797 -20.229284 0.000000 -0.000000 0.000000 5.268427 4.476950 -14.505592 0.415636 -4.509740 8.694150 -5.333768 -1.930799 10.860007 -5.723988 10.317358 -3.927831 0.294436 12.772002 7.510435 -26.351200 9.111732 2.388344 -64.483629 -4.574458 17.821669 -161.121511 -69.639926 -174.924216 15.073721 -8.496221 -28.208179 23.378630 -6.710736 5.926686 63.010728 4.462412 17.703596 -60.402190 73.012472 -32.025645 -3.630702 1.970904 2.925736 
